<?xml version="1.0" encoding="utf-8" standalone="no"?>
<!DOCTYPE svg PUBLIC "-//W3C//DTD SVG 1.1//EN"
  "http://www.w3.org/Graphics/SVG/1.1/DTD/svg11.dtd">
<!-- Created with matplotlib (https://matplotlib.org/) -->
<svg height="144pt" version="1.1" viewBox="0 0 96 144" width="96pt" xmlns="http://www.w3.org/2000/svg" xmlns:xlink="http://www.w3.org/1999/xlink">
 <metadata>
  <rdf:RDF xmlns:cc="http://creativecommons.org/ns#" xmlns:dc="http://purl.org/dc/elements/1.1/" xmlns:rdf="http://www.w3.org/1999/02/22-rdf-syntax-ns#">
   <cc:Work>
    <dc:type rdf:resource="http://purl.org/dc/dcmitype/StillImage"/>
    <dc:date>2021-02-22T14:45:41.155725</dc:date>
    <dc:format>image/svg+xml</dc:format>
    <dc:creator>
     <cc:Agent>
      <dc:title>Matplotlib v3.3.4, https://matplotlib.org/</dc:title>
     </cc:Agent>
    </dc:creator>
   </cc:Work>
  </rdf:RDF>
 </metadata>
 <defs>
  <style type="text/css">*{stroke-linecap:butt;stroke-linejoin:round;}</style>
 </defs>
 <g id="figure_1">
  <g id="patch_1">
   <path d="M 0 144 
L 96 144 
L 96 0 
L 0 0 
z
" style="fill:#ffffff;"/>
  </g>
  <g id="axes_1">
   <g id="patch_2">
    <path clip-path="url(#p867feb320e)" d="M 21.073171 61.832195 
L 24.702439 63.646829 
L 21.073171 65.461463 
z
" style="fill:#e60000;stroke:#e60000;stroke-linejoin:miter;"/>
    <g id="patch_3">
     <path clip-path="url(#p867feb320e)" d="M 58.273171 61.832195 
L 61.902439 63.646829 
L 58.273171 65.461463 
z
" style="fill:#0000e6;stroke:#0000e6;stroke-linejoin:miter;"/>
     <g id="line2d_1">
      <path clip-path="url(#p867feb320e)" d="M 15.629268 72.72 
L 15.629268 63.646829 
" style="fill:none;stroke:#e60000;stroke-linecap:square;stroke-linejoin:miter;"/>
     </g>
     <g id="line2d_2">
      <path clip-path="url(#p867feb320e)" d="M 52.829268 72.72 
L 52.829268 63.646829 
" style="fill:none;stroke:#0000e6;stroke-linecap:square;stroke-linejoin:miter;"/>
     </g>
     <g id="line2d_3">
      <path clip-path="url(#p867feb320e)" d="M 15.629268 63.646829 
L 22.887805 63.646829 
" style="fill:none;stroke:#e60000;stroke-linecap:square;stroke-linejoin:miter;"/>
     </g>
     <g id="line2d_4">
      <path clip-path="url(#p867feb320e)" d="M 52.829268 63.646829 
L 60.087805 63.646829 
" style="fill:none;stroke:#0000e6;stroke-linecap:square;stroke-linejoin:miter;"/>
     </g>
     <g id="line2d_5">
      <path clip-path="url(#p867feb320e)" d="M 12 72.72 
L 86.4 72.72 
" style="fill:none;stroke:#000000;stroke-linecap:square;stroke-linejoin:miter;"/>
     </g>
     <g id="patch_4">
      <path clip-path="url(#p867feb320e)" d="M 31.960976 69.090732 
L 31.960976 76.349268 
L 45.570732 76.349268 
L 45.570732 76.349268 
L 45.570732 72.72 
L 45.570732 69.090732 
L 45.570732 69.090732 
z
" style="fill:#00cc00;stroke:#000000;stroke-linejoin:miter;"/>
      <g id="patch_5">
       <path clip-path="url(#p867feb320e)" d="M 69.160976 69.090732 
L 69.160976 76.349268 
L 82.770732 76.349268 
L 82.770732 76.349268 
L 82.770732 72.72 
L 82.770732 69.090732 
L 82.770732 69.090732 
z
" style="fill:#0000e6;stroke:#000000;stroke-linejoin:miter;"/>
       <g id="line2d_6">
        <path clip-path="url(#p867feb320e)" d="M 54.643902 56.388293 
L 57.365854 59.110244 
" style="fill:none;stroke:#000000;stroke-linecap:square;stroke-linejoin:miter;"/>
       </g>
       <g id="line2d_7">
        <path clip-path="url(#p867feb320e)" d="M 60.087805 56.388293 
L 57.365854 59.110244 
" style="fill:none;stroke:#000000;stroke-linecap:square;stroke-linejoin:miter;"/>
       </g>
       <g id="line2d_8">
        <path clip-path="url(#p867feb320e)" d="M 38.765854 63.646829 
L 38.765854 54.573659 
" style="fill:none;stroke:#000000;stroke-linecap:square;stroke-linejoin:miter;"/>
       </g>
       <g id="line2d_9">
        <path clip-path="url(#p867feb320e)" d="M 38.765854 54.573659 
L 57.365854 54.573659 
" style="fill:none;stroke:#000000;stroke-linecap:square;stroke-linejoin:miter;"/>
       </g>
       <g id="line2d_10">
        <path clip-path="url(#p867feb320e)" d="M 57.365854 54.573659 
L 57.365854 58.202927 
" style="fill:none;stroke:#000000;stroke-linecap:square;stroke-linejoin:miter;"/>
       </g>
       <g id="text_1">
        <!-- Cph8 -->
        <g transform="translate(15.610385 80.944318)scale(0.035 -0.035)">
         <defs>
          <path d="M 69.484375 67.28125 
L 67.484375 56.890625 
Q 62.796875 61.625 57.546875 63.921875 
Q 52.296875 66.21875 46.1875 66.21875 
Q 37.84375 66.21875 31.515625 62.203125 
Q 25.203125 58.203125 20.609375 50 
Q 17.671875 44.734375 16.125 38.84375 
Q 14.59375 32.953125 14.59375 27 
Q 14.59375 17.046875 19.75 11.8125 
Q 24.90625 6.59375 34.71875 6.59375 
Q 41.5 6.59375 47.75 8.765625 
Q 54 10.9375 59.90625 15.28125 
L 57.625 3.609375 
Q 51.8125 1.125 45.875 -0.140625 
Q 39.9375 -1.421875 33.984375 -1.421875 
Q 19.96875 -1.421875 12.078125 6.1875 
Q 4.203125 13.8125 4.203125 27.390625 
Q 4.203125 36.078125 7.203125 44.46875 
Q 10.203125 52.875 15.828125 59.8125 
Q 21.78125 67.1875 29.421875 70.703125 
Q 37.0625 74.21875 47.21875 74.21875 
Q 53.46875 74.21875 59.0625 72.484375 
Q 64.65625 70.75 69.484375 67.28125 
z
" id="DejaVuSans-Oblique-67"/>
          <path d="M 49.609375 33.6875 
Q 49.609375 40.875 46.484375 44.671875 
Q 43.359375 48.484375 37.5 48.484375 
Q 33.5 48.484375 29.859375 46.4375 
Q 26.21875 44.390625 23.390625 40.484375 
Q 20.609375 36.625 18.9375 31.15625 
Q 17.28125 25.6875 17.28125 20.3125 
Q 17.28125 13.484375 20.40625 9.796875 
Q 23.53125 6.109375 29.296875 6.109375 
Q 33.546875 6.109375 37.1875 8.109375 
Q 40.828125 10.109375 43.40625 13.921875 
Q 46.1875 17.921875 47.890625 23.34375 
Q 49.609375 28.765625 49.609375 33.6875 
z
M 21.78125 46.390625 
Q 25.390625 51.125 30.296875 53.5625 
Q 35.203125 56 41.21875 56 
Q 49.609375 56 54.25 50.5 
Q 58.890625 45.015625 58.890625 35.109375 
Q 58.890625 27 56 19.65625 
Q 53.125 12.3125 47.703125 6.5 
Q 44.09375 2.640625 39.546875 0.609375 
Q 35.015625 -1.421875 29.984375 -1.421875 
Q 24.171875 -1.421875 20.21875 1 
Q 16.265625 3.421875 14.3125 8.203125 
L 8.6875 -20.796875 
L -0.296875 -20.796875 
L 14.40625 54.6875 
L 23.390625 54.6875 
z
" id="DejaVuSans-Oblique-112"/>
          <path d="M 55.71875 33.015625 
L 49.3125 0 
L 40.28125 0 
L 46.6875 32.671875 
Q 47.125 34.96875 47.359375 36.71875 
Q 47.609375 38.484375 47.609375 39.5 
Q 47.609375 43.609375 45.015625 45.890625 
Q 42.4375 48.1875 37.796875 48.1875 
Q 30.5625 48.1875 25.265625 43.296875 
Q 19.96875 38.421875 18.40625 30.328125 
L 12.5 0 
L 3.515625 0 
L 18.3125 75.984375 
L 27.296875 75.984375 
L 21.484375 46.09375 
Q 24.90625 50.6875 30.21875 53.34375 
Q 35.546875 56 41.40625 56 
Q 48.640625 56 52.609375 52.09375 
Q 56.59375 48.1875 56.59375 41.109375 
Q 56.59375 39.359375 56.375 37.359375 
Q 56.15625 35.359375 55.71875 33.015625 
z
" id="DejaVuSans-Oblique-104"/>
          <path d="M 44.484375 22.125 
Q 44.484375 27.640625 40.625 31.125 
Q 36.765625 34.625 30.515625 34.625 
Q 22.90625 34.625 17.9375 30.046875 
Q 12.984375 25.484375 12.984375 18.5 
Q 12.984375 12.9375 16.765625 9.65625 
Q 20.5625 6.390625 27 6.390625 
Q 34.671875 6.390625 39.578125 10.828125 
Q 44.484375 15.28125 44.484375 22.125 
z
M 49.515625 56.109375 
Q 49.515625 60.75 46.09375 63.578125 
Q 42.671875 66.40625 37.015625 66.40625 
Q 30.328125 66.40625 26 62.640625 
Q 21.6875 58.890625 21.6875 53.21875 
Q 21.6875 48.34375 25.078125 45.359375 
Q 28.46875 42.390625 34.078125 42.390625 
Q 40.828125 42.390625 45.171875 46.265625 
Q 49.515625 50.140625 49.515625 56.109375 
z
M 42.828125 38.375 
Q 48.34375 36.28125 51.265625 32.03125 
Q 54.203125 27.78125 54.203125 21.78125 
Q 54.203125 11.671875 46.390625 5.125 
Q 38.578125 -1.421875 26.21875 -1.421875 
Q 15.71875 -1.421875 9.515625 3.734375 
Q 3.328125 8.890625 3.328125 17.484375 
Q 3.328125 25.296875 8.640625 31.375 
Q 13.96875 37.453125 22.515625 39.109375 
Q 17.390625 40.875 14.703125 44.5625 
Q 12.015625 48.25 12.015625 53.515625 
Q 12.015625 62.359375 19.359375 68.28125 
Q 26.703125 74.21875 37.984375 74.21875 
Q 47.40625 74.21875 53.34375 69.40625 
Q 59.28125 64.59375 59.28125 57.171875 
Q 59.28125 50.734375 54.859375 45.671875 
Q 50.4375 40.625 42.828125 38.375 
z
" id="DejaVuSans-Oblique-56"/>
         </defs>
         <use xlink:href="#DejaVuSans-Oblique-67"/>
         <use x="69.824219" xlink:href="#DejaVuSans-Oblique-112"/>
         <use x="133.300781" xlink:href="#DejaVuSans-Oblique-104"/>
         <use x="196.679688" xlink:href="#DejaVuSans-Oblique-56"/>
        </g>
       </g>
       <g id="text_2">
        <!-- OmpR -->
        <g transform="translate(33.356713 80.944318)scale(0.035 -0.035)">
         <defs>
          <path d="M 45.609375 66.21875 
Q 37.5 66.21875 31.296875 62.28125 
Q 25.09375 58.34375 20.515625 50.296875 
Q 17.578125 45.171875 16.03125 39.40625 
Q 14.5 33.640625 14.5 27.78125 
Q 14.5 17.625 19.359375 12.109375 
Q 24.21875 6.59375 33.109375 6.59375 
Q 41.109375 6.59375 47.375 10.5625 
Q 53.65625 14.546875 58.109375 22.40625 
Q 61.078125 27.6875 62.640625 33.46875 
Q 64.203125 39.265625 64.203125 45.015625 
Q 64.203125 55.125 59.3125 60.671875 
Q 54.4375 66.21875 45.609375 66.21875 
z
M 32.8125 -1.421875 
Q 19.390625 -1.421875 11.6875 6.53125 
Q 4 14.5 4 28.328125 
Q 4 36.234375 7 44.484375 
Q 10.015625 52.734375 15.28125 59.1875 
Q 21.484375 66.75 29.09375 70.484375 
Q 36.71875 74.21875 45.90625 74.21875 
Q 59.28125 74.21875 66.984375 66.328125 
Q 74.703125 58.453125 74.703125 44.828125 
Q 74.703125 36.421875 71.765625 28.3125 
Q 68.84375 20.21875 63.375 13.625 
Q 57.125 6 49.578125 2.28125 
Q 42.046875 -1.421875 32.8125 -1.421875 
z
" id="DejaVuSans-Oblique-79"/>
          <path d="M 89.796875 33.015625 
L 83.40625 0 
L 74.421875 0 
L 80.71875 32.71875 
Q 81.109375 34.8125 81.296875 36.328125 
Q 81.5 37.84375 81.5 38.921875 
Q 81.5 43.3125 79.046875 45.75 
Q 76.609375 48.1875 72.21875 48.1875 
Q 65.671875 48.1875 60.546875 43.28125 
Q 55.421875 38.375 53.90625 30.515625 
L 47.90625 0 
L 38.921875 0 
L 45.3125 32.71875 
Q 45.703125 34.515625 45.890625 36.046875 
Q 46.09375 37.59375 46.09375 38.8125 
Q 46.09375 43.265625 43.65625 45.71875 
Q 41.21875 48.1875 36.921875 48.1875 
Q 30.28125 48.1875 25.140625 43.28125 
Q 20.015625 38.375 18.5 30.515625 
L 12.5 0 
L 3.515625 0 
L 14.203125 54.6875 
L 23.1875 54.6875 
L 21.484375 46.1875 
Q 25.140625 50.984375 30.046875 53.484375 
Q 34.96875 56 40.578125 56 
Q 46.53125 56 50.359375 52.875 
Q 54.203125 49.75 54.984375 44.1875 
Q 59.078125 49.953125 64.46875 52.96875 
Q 69.875 56 75.875 56 
Q 82.90625 56 86.734375 51.953125 
Q 90.578125 47.90625 90.578125 40.484375 
Q 90.578125 38.875 90.375 36.9375 
Q 90.1875 35.015625 89.796875 33.015625 
z
" id="DejaVuSans-Oblique-109"/>
          <path d="M 25.203125 64.796875 
L 20.21875 38.921875 
L 32.90625 38.921875 
Q 40.375 38.921875 44.984375 43.046875 
Q 49.609375 47.171875 49.609375 53.8125 
Q 49.609375 59.125 46.5 61.953125 
Q 43.40625 64.796875 37.59375 64.796875 
z
M 43.3125 35.015625 
Q 46.4375 34.28125 48.515625 31.390625 
Q 50.59375 28.515625 53.328125 19.921875 
L 59.515625 0 
L 49.125 0 
L 43.40625 18.703125 
Q 41.21875 25.921875 38.328125 28.359375 
Q 35.453125 30.8125 29.5 30.8125 
L 18.609375 30.8125 
L 12.59375 0 
L 2.6875 0 
L 16.890625 72.90625 
L 39.109375 72.90625 
Q 49.21875 72.90625 54.609375 68.328125 
Q 60.015625 63.765625 60.015625 55.171875 
Q 60.015625 47.5625 55.421875 41.984375 
Q 50.828125 36.421875 43.3125 35.015625 
z
" id="DejaVuSans-Oblique-82"/>
         </defs>
         <use xlink:href="#DejaVuSans-Oblique-79"/>
         <use x="78.710938" xlink:href="#DejaVuSans-Oblique-109"/>
         <use x="176.123047" xlink:href="#DejaVuSans-Oblique-112"/>
         <use x="239.599609" xlink:href="#DejaVuSans-Oblique-82"/>
        </g>
       </g>
       <g id="text_3">
        <!-- Pomp -->
        <g transform="translate(52.424291 80.944318)scale(0.035 -0.035)">
         <defs>
          <path d="M 16.890625 72.90625 
L 39.703125 72.90625 
Q 49.65625 72.90625 54.875 68.265625 
Q 60.109375 63.625 60.109375 54.6875 
Q 60.109375 42.671875 52.390625 35.984375 
Q 44.671875 29.296875 30.71875 29.296875 
L 18.3125 29.296875 
L 12.59375 0 
L 2.6875 0 
z
M 25.203125 64.796875 
L 19.921875 37.40625 
L 32.328125 37.40625 
Q 40.71875 37.40625 45.203125 41.703125 
Q 49.703125 46 49.703125 54 
Q 49.703125 59.125 46.65625 61.953125 
Q 43.609375 64.796875 38.09375 64.796875 
z
" id="DejaVuSans-Oblique-80"/>
          <path d="M 25.390625 -1.421875 
Q 15.765625 -1.421875 10.171875 4.515625 
Q 4.59375 10.453125 4.59375 20.703125 
Q 4.59375 26.65625 6.515625 32.828125 
Q 8.453125 39.015625 11.53125 43.21875 
Q 16.359375 49.75 22.3125 52.875 
Q 28.265625 56 35.796875 56 
Q 45.125 56 50.859375 50.1875 
Q 56.59375 44.390625 56.59375 35.015625 
Q 56.59375 28.515625 54.6875 22.0625 
Q 52.78125 15.625 49.703125 11.375 
Q 44.921875 4.828125 38.96875 1.703125 
Q 33.015625 -1.421875 25.390625 -1.421875 
z
M 13.921875 21 
Q 13.921875 13.578125 17.015625 9.890625 
Q 20.125 6.203125 26.421875 6.203125 
Q 35.453125 6.203125 41.375 14.078125 
Q 47.3125 21.96875 47.3125 34.078125 
Q 47.3125 41.15625 44.140625 44.765625 
Q 40.96875 48.390625 34.8125 48.390625 
Q 29.734375 48.390625 25.78125 46.015625 
Q 21.828125 43.65625 18.703125 38.8125 
Q 16.40625 35.203125 15.15625 30.5625 
Q 13.921875 25.921875 13.921875 21 
z
" id="DejaVuSans-Oblique-111"/>
         </defs>
         <use xlink:href="#DejaVuSans-Oblique-80"/>
         <use x="60.302734" xlink:href="#DejaVuSans-Oblique-111"/>
         <use x="121.484375" xlink:href="#DejaVuSans-Oblique-109"/>
         <use x="218.896484" xlink:href="#DejaVuSans-Oblique-112"/>
        </g>
       </g>
       <g id="text_4">
        <!-- LacZ -->
        <g transform="translate(71.757377 80.944318)scale(0.035 -0.035)">
         <defs>
          <path d="M 16.796875 72.90625 
L 26.703125 72.90625 
L 14.203125 8.203125 
L 49.703125 8.203125 
L 48.09375 0 
L 2.6875 0 
z
" id="DejaVuSans-Oblique-76"/>
          <path d="M 53.71875 31.203125 
L 47.609375 0 
L 38.625 0 
L 40.28125 8.296875 
Q 36.328125 3.421875 31.265625 1 
Q 26.21875 -1.421875 20.015625 -1.421875 
Q 13.03125 -1.421875 8.5625 2.84375 
Q 4.109375 7.125 4.109375 13.8125 
Q 4.109375 23.390625 11.75 28.953125 
Q 19.390625 34.515625 32.8125 34.515625 
L 45.3125 34.515625 
L 45.796875 36.921875 
Q 45.90625 37.3125 45.953125 37.765625 
Q 46 38.234375 46 39.203125 
Q 46 43.5625 42.453125 45.96875 
Q 38.921875 48.390625 32.515625 48.390625 
Q 28.125 48.390625 23.5 47.265625 
Q 18.890625 46.140625 14.015625 43.890625 
L 15.578125 52.203125 
Q 20.65625 54.109375 25.515625 55.046875 
Q 30.375 56 34.90625 56 
Q 44.578125 56 49.625 51.796875 
Q 54.6875 47.609375 54.6875 39.59375 
Q 54.6875 37.984375 54.4375 35.8125 
Q 54.203125 33.640625 53.71875 31.203125 
z
M 44 27.484375 
L 35.015625 27.484375 
Q 23.96875 27.484375 18.671875 24.53125 
Q 13.375 21.578125 13.375 15.375 
Q 13.375 11.078125 16.078125 8.640625 
Q 18.796875 6.203125 23.578125 6.203125 
Q 30.90625 6.203125 36.375 11.453125 
Q 41.84375 16.703125 43.609375 25.484375 
z
" id="DejaVuSans-Oblique-97"/>
          <path d="M 53.609375 52.59375 
L 51.8125 43.703125 
Q 48.578125 46.046875 44.9375 47.21875 
Q 41.3125 48.390625 37.40625 48.390625 
Q 33.109375 48.390625 29.21875 46.875 
Q 25.34375 45.359375 22.703125 42.578125 
Q 18.5 38.328125 16.203125 32.609375 
Q 13.921875 26.90625 13.921875 20.796875 
Q 13.921875 13.421875 17.609375 9.8125 
Q 21.296875 6.203125 28.8125 6.203125 
Q 32.515625 6.203125 36.6875 7.328125 
Q 40.875 8.453125 45.40625 10.6875 
L 43.703125 1.8125 
Q 39.796875 0.203125 35.671875 -0.609375 
Q 31.546875 -1.421875 27.203125 -1.421875 
Q 16.3125 -1.421875 10.453125 4.015625 
Q 4.59375 9.46875 4.59375 19.578125 
Q 4.59375 28.078125 7.640625 35.234375 
Q 10.6875 42.390625 16.703125 48.09375 
Q 20.796875 52 26.3125 54 
Q 31.84375 56 38.375 56 
Q 42.1875 56 45.9375 55.140625 
Q 49.703125 54.296875 53.609375 52.59375 
z
" id="DejaVuSans-Oblique-99"/>
          <path d="M 13.09375 72.90625 
L 70.3125 72.90625 
L 68.890625 65.375 
L 12.40625 8.296875 
L 58.890625 8.296875 
L 57.328125 0 
L -2.203125 0 
L -0.78125 7.515625 
L 55.71875 64.59375 
L 11.53125 64.59375 
z
" id="DejaVuSans-Oblique-90"/>
         </defs>
         <use xlink:href="#DejaVuSans-Oblique-76"/>
         <use x="55.712891" xlink:href="#DejaVuSans-Oblique-97"/>
         <use x="116.992188" xlink:href="#DejaVuSans-Oblique-99"/>
         <use x="171.972656" xlink:href="#DejaVuSans-Oblique-90"/>
        </g>
       </g>
      </g>
     </g>
     <defs>
      <clipPath id="p867feb320e">
       <rect height="61.697561" width="74.4" x="12" y="41.87122"/>
      </clipPath>
     </defs>
    </g>
   </g>
  </g>
 </g>
</svg>
