<?xml version="1.0" encoding="utf-8" standalone="no"?>
<!DOCTYPE svg PUBLIC "-//W3C//DTD SVG 1.1//EN"
  "http://www.w3.org/Graphics/SVG/1.1/DTD/svg11.dtd">
<!-- Created with matplotlib (https://matplotlib.org/) -->
<svg height="108pt" version="1.1" viewBox="0 0 432 108" width="432pt" xmlns="http://www.w3.org/2000/svg" xmlns:xlink="http://www.w3.org/1999/xlink">
 <defs>
  <style type="text/css">
*{stroke-linecap:butt;stroke-linejoin:round;}
  </style>
 </defs>
 <g id="figure_1">
  <g id="patch_1">
   <path d="M 0 108 
L 432 108 
L 432 0 
L 0 0 
z
" style="fill:#ffffff;"/>
  </g>
  <g id="axes_1">
   <g id="patch_2">
    <path clip-path="url(#p6f7263feef)" d="M 66.4 39.66 
L 71.36 42.14 
L 66.4 44.62 
z
" style="stroke:#000000;stroke-linejoin:miter;"/>
    <g id="patch_3">
     <path clip-path="url(#p6f7263feef)" d="M 178 39.66 
L 182.96 42.14 
L 178 44.62 
z
" style="stroke:#000000;stroke-linejoin:miter;"/>
     <g id="patch_4">
      <path clip-path="url(#p6f7263feef)" d="M 289.6 39.66 
L 294.56 42.14 
L 289.6 44.62 
z
" style="fill:#ffb280;stroke:#ffb280;stroke-linejoin:miter;"/>
      <g id="patch_5">
       <path clip-path="url(#p6f7263feef)" d="M 93.68 54.54 
C 93.68 52.896288 93.026342 51.318218 91.864062 50.155938 
C 90.701782 48.993658 89.123712 48.34 87.48 48.34 
C 85.836288 48.34 84.258218 48.993658 83.095938 50.155938 
C 81.933658 51.318218 81.28 52.896288 81.28 54.54 
L 87.48 54.54 
L 93.68 54.54 
z
" style="fill:#0000e6;stroke:#000000;stroke-linejoin:miter;"/>
      </g>
      <g id="patch_6">
       <path clip-path="url(#p6f7263feef)" d="M 205.28 54.54 
C 205.28 52.896288 204.626342 51.318218 203.464062 50.155938 
C 202.301782 48.993658 200.723712 48.34 199.08 48.34 
C 197.436288 48.34 195.858218 48.993658 194.695938 50.155938 
C 193.533658 51.318218 192.88 52.896288 192.88 54.54 
L 199.08 54.54 
L 205.28 54.54 
z
" style="fill:#0000e6;stroke:#000000;stroke-linejoin:miter;"/>
      </g>
      <g id="patch_7">
       <path clip-path="url(#p6f7263feef)" d="M 316.88 54.54 
C 316.88 52.896288 316.226342 51.318218 315.064062 50.155938 
C 313.901782 48.993658 312.323712 48.34 310.68 48.34 
C 309.036288 48.34 307.458218 48.993658 306.295938 50.155938 
C 305.133658 51.318218 304.48 52.896288 304.48 54.54 
L 310.68 54.54 
L 316.88 54.54 
z
" style="fill:#0000e6;stroke:#000000;stroke-linejoin:miter;"/>
      </g>
      <g id="line2d_1">
       <path clip-path="url(#p6f7263feef)" d="M 155.68 54.54 
L 155.68 42.14 
" style="fill:none;stroke:#000000;stroke-linecap:square;stroke-linejoin:miter;"/>
      </g>
      <g id="line2d_2">
       <path clip-path="url(#p6f7263feef)" d="M 267.28 54.54 
L 267.28 42.14 
" style="fill:none;stroke:#000000;stroke-linecap:square;stroke-linejoin:miter;"/>
      </g>
      <g id="line2d_3">
       <path clip-path="url(#p6f7263feef)" d="M 378.88 54.54 
L 378.88 42.14 
" style="fill:none;stroke:#000000;stroke-linecap:square;stroke-linejoin:miter;"/>
      </g>
      <g id="line2d_4">
       <path clip-path="url(#p6f7263feef)" d="M 58.96 54.54 
L 58.96 42.14 
" style="fill:none;stroke:#000000;stroke-linecap:square;stroke-linejoin:miter;"/>
      </g>
      <g id="line2d_5">
       <path clip-path="url(#p6f7263feef)" d="M 150.72 42.14 
L 160.64 42.14 
" style="fill:none;stroke:#000000;stroke-linecap:square;stroke-linejoin:miter;"/>
      </g>
      <g id="line2d_6">
       <path clip-path="url(#p6f7263feef)" d="M 170.56 54.54 
L 170.56 42.14 
" style="fill:none;stroke:#000000;stroke-linecap:square;stroke-linejoin:miter;"/>
      </g>
      <g id="line2d_7">
       <path clip-path="url(#p6f7263feef)" d="M 262.32 42.14 
L 272.24 42.14 
" style="fill:none;stroke:#000000;stroke-linecap:square;stroke-linejoin:miter;"/>
      </g>
      <g id="line2d_8">
       <path clip-path="url(#p6f7263feef)" d="M 282.16 54.54 
L 282.16 42.14 
" style="fill:none;stroke:#ffb280;stroke-linecap:square;stroke-linejoin:miter;"/>
      </g>
      <g id="line2d_9">
       <path clip-path="url(#p6f7263feef)" d="M 373.92 42.14 
L 383.84 42.14 
" style="fill:none;stroke:#000000;stroke-linecap:square;stroke-linejoin:miter;"/>
      </g>
      <g id="line2d_10">
       <path clip-path="url(#p6f7263feef)" d="M 58.96 42.14 
L 68.88 42.14 
" style="fill:none;stroke:#000000;stroke-linecap:square;stroke-linejoin:miter;"/>
      </g>
      <g id="line2d_11">
       <path clip-path="url(#p6f7263feef)" d="M 170.56 42.14 
L 180.48 42.14 
" style="fill:none;stroke:#000000;stroke-linecap:square;stroke-linejoin:miter;"/>
      </g>
      <g id="line2d_12">
       <path clip-path="url(#p6f7263feef)" d="M 282.16 42.14 
L 292.08 42.14 
" style="fill:none;stroke:#ffb280;stroke-linecap:square;stroke-linejoin:miter;"/>
      </g>
      <g id="line2d_13">
       <path clip-path="url(#p6f7263feef)" d="M 54 54.54 
L 388.8 54.54 
" style="fill:none;stroke:#000000;stroke-linecap:square;stroke-linejoin:miter;"/>
      </g>
      <g id="patch_8">
       <path clip-path="url(#p6f7263feef)" d="M 103.6 48.34 
L 103.6 60.74 
L 130.88 60.74 
L 130.88 60.74 
L 140.8 54.54 
L 130.88 48.34 
L 130.88 48.34 
z
" style="fill:#ffff66;stroke:#000000;stroke-linejoin:miter;"/>
       <g id="patch_9">
        <path clip-path="url(#p6f7263feef)" d="M 215.2 48.34 
L 215.2 60.74 
L 242.48 60.74 
L 242.48 60.74 
L 252.4 54.54 
L 242.48 48.34 
L 242.48 48.34 
z
" style="fill:#ffb280;stroke:#000000;stroke-linejoin:miter;"/>
        <g id="patch_10">
         <path clip-path="url(#p6f7263feef)" d="M 326.8 48.34 
L 326.8 60.74 
L 354.08 60.74 
L 354.08 60.74 
L 364 54.54 
L 354.08 48.34 
L 354.08 48.34 
z
" style="fill:#99ff99;stroke:#000000;stroke-linejoin:miter;"/>
         <g id="text_1">
          <!-- Psal -->
          <defs>
           <path d="M 16.890625 72.90625 
L 39.703125 72.90625 
Q 49.65625 72.90625 54.875 68.265625 
Q 60.109375 63.625 60.109375 54.6875 
Q 60.109375 42.671875 52.390625 35.984375 
Q 44.671875 29.296875 30.71875 29.296875 
L 18.3125 29.296875 
L 12.59375 0 
L 2.6875 0 
z
M 25.203125 64.796875 
L 19.921875 37.40625 
L 32.328125 37.40625 
Q 40.71875 37.40625 45.203125 41.703125 
Q 49.703125 46 49.703125 54 
Q 49.703125 59.125 46.65625 61.953125 
Q 43.609375 64.796875 38.09375 64.796875 
z
" id="DejaVuSans-Oblique-80"/>
           <path d="M 50 53.078125 
L 48.296875 44.578125 
Q 44.734375 46.53125 40.765625 47.5 
Q 36.8125 48.484375 32.625 48.484375 
Q 25.53125 48.484375 21.453125 46.0625 
Q 17.390625 43.65625 17.390625 39.5 
Q 17.390625 34.671875 26.859375 32.078125 
Q 27.59375 31.890625 27.9375 31.78125 
L 30.8125 30.90625 
Q 39.796875 28.421875 42.796875 25.6875 
Q 45.796875 22.953125 45.796875 18.21875 
Q 45.796875 9.515625 38.890625 4.046875 
Q 31.984375 -1.421875 20.796875 -1.421875 
Q 16.453125 -1.421875 11.671875 -0.578125 
Q 6.890625 0.25 1.125 2 
L 2.875 11.28125 
Q 7.8125 8.734375 12.59375 7.421875 
Q 17.390625 6.109375 21.78125 6.109375 
Q 28.375 6.109375 32.5 8.9375 
Q 36.625 11.765625 36.625 16.109375 
Q 36.625 20.796875 25.78125 23.6875 
L 24.859375 23.921875 
L 21.78125 24.703125 
Q 14.9375 26.515625 11.765625 29.46875 
Q 8.59375 32.421875 8.59375 37.015625 
Q 8.59375 45.75 15.15625 50.875 
Q 21.734375 56 33.015625 56 
Q 37.453125 56 41.671875 55.265625 
Q 45.90625 54.546875 50 53.078125 
z
" id="DejaVuSans-Oblique-115"/>
           <path d="M 53.71875 31.203125 
L 47.609375 0 
L 38.625 0 
L 40.28125 8.296875 
Q 36.328125 3.421875 31.265625 1 
Q 26.21875 -1.421875 20.015625 -1.421875 
Q 13.03125 -1.421875 8.5625 2.84375 
Q 4.109375 7.125 4.109375 13.8125 
Q 4.109375 23.390625 11.75 28.953125 
Q 19.390625 34.515625 32.8125 34.515625 
L 45.3125 34.515625 
L 45.796875 36.921875 
Q 45.90625 37.3125 45.953125 37.765625 
Q 46 38.234375 46 39.203125 
Q 46 43.5625 42.453125 45.96875 
Q 38.921875 48.390625 32.515625 48.390625 
Q 28.125 48.390625 23.5 47.265625 
Q 18.890625 46.140625 14.015625 43.890625 
L 15.578125 52.203125 
Q 20.65625 54.109375 25.515625 55.046875 
Q 30.375 56 34.90625 56 
Q 44.578125 56 49.625 51.796875 
Q 54.6875 47.609375 54.6875 39.59375 
Q 54.6875 37.984375 54.4375 35.8125 
Q 54.203125 33.640625 53.71875 31.203125 
z
M 44 27.484375 
L 35.015625 27.484375 
Q 23.96875 27.484375 18.671875 24.53125 
Q 13.375 21.578125 13.375 15.375 
Q 13.375 11.078125 16.078125 8.640625 
Q 18.796875 6.203125 23.578125 6.203125 
Q 30.90625 6.203125 36.375 11.453125 
Q 41.84375 16.703125 43.609375 25.484375 
z
" id="DejaVuSans-Oblique-97"/>
           <path d="M 18.3125 75.984375 
L 27.296875 75.984375 
L 12.5 0 
L 3.515625 0 
z
" id="DejaVuSans-Oblique-108"/>
          </defs>
          <g transform="translate(60.123672 65.839687)scale(0.05 -0.05)">
           <use xlink:href="#DejaVuSans-Oblique-80"/>
           <use x="60.302734" xlink:href="#DejaVuSans-Oblique-115"/>
           <use x="112.402344" xlink:href="#DejaVuSans-Oblique-97"/>
           <use x="173.681641" xlink:href="#DejaVuSans-Oblique-108"/>
          </g>
         </g>
         <g id="text_2">
          <!-- r -->
          <defs>
           <path d="M 44.578125 46.390625 
Q 43.21875 47.125 41.453125 47.515625 
Q 39.703125 47.90625 37.703125 47.90625 
Q 30.515625 47.90625 25.140625 42.453125 
Q 19.78125 37.015625 18.015625 27.875 
L 12.5 0 
L 3.515625 0 
L 14.203125 54.6875 
L 23.1875 54.6875 
L 21.484375 46.1875 
Q 25.046875 50.921875 30 53.453125 
Q 34.96875 56 40.578125 56 
Q 42.046875 56 43.453125 55.828125 
Q 44.875 55.671875 46.296875 55.28125 
z
" id="DejaVuSans-Oblique-114"/>
          </defs>
          <g transform="translate(86.452266 65.839687)scale(0.05 -0.05)">
           <use xlink:href="#DejaVuSans-Oblique-114"/>
          </g>
         </g>
         <g id="text_3">
          <!-- supD -->
          <defs>
           <path d="M 6.6875 21.6875 
L 13.09375 54.6875 
L 22.125 54.6875 
L 15.71875 22.015625 
Q 15.234375 19.625 15.015625 17.921875 
Q 14.796875 16.21875 14.796875 15.09375 
Q 14.796875 10.9375 17.328125 8.65625 
Q 19.875 6.390625 24.515625 6.390625 
Q 31.734375 6.390625 37 11.265625 
Q 42.28125 16.15625 43.890625 24.421875 
L 49.90625 54.6875 
L 58.890625 54.6875 
L 48.296875 0 
L 39.3125 0 
L 41.109375 8.59375 
Q 37.3125 3.8125 32.0625 1.1875 
Q 26.8125 -1.421875 20.90625 -1.421875 
Q 13.71875 -1.421875 9.71875 2.515625 
Q 5.71875 6.453125 5.71875 13.484375 
Q 5.71875 14.9375 5.953125 17.140625 
Q 6.203125 19.34375 6.6875 21.6875 
z
" id="DejaVuSans-Oblique-117"/>
           <path d="M 49.609375 33.6875 
Q 49.609375 40.875 46.484375 44.671875 
Q 43.359375 48.484375 37.5 48.484375 
Q 33.5 48.484375 29.859375 46.4375 
Q 26.21875 44.390625 23.390625 40.484375 
Q 20.609375 36.625 18.9375 31.15625 
Q 17.28125 25.6875 17.28125 20.3125 
Q 17.28125 13.484375 20.40625 9.796875 
Q 23.53125 6.109375 29.296875 6.109375 
Q 33.546875 6.109375 37.1875 8.109375 
Q 40.828125 10.109375 43.40625 13.921875 
Q 46.1875 17.921875 47.890625 23.34375 
Q 49.609375 28.765625 49.609375 33.6875 
z
M 21.78125 46.390625 
Q 25.390625 51.125 30.296875 53.5625 
Q 35.203125 56 41.21875 56 
Q 49.609375 56 54.25 50.5 
Q 58.890625 45.015625 58.890625 35.109375 
Q 58.890625 27 56 19.65625 
Q 53.125 12.3125 47.703125 6.5 
Q 44.09375 2.640625 39.546875 0.609375 
Q 35.015625 -1.421875 29.984375 -1.421875 
Q 24.171875 -1.421875 20.21875 1 
Q 16.265625 3.421875 14.3125 8.203125 
L 8.6875 -20.796875 
L -0.296875 -20.796875 
L 14.40625 54.6875 
L 23.390625 54.6875 
z
" id="DejaVuSans-Oblique-112"/>
           <path d="M 16.890625 72.90625 
L 38.09375 72.90625 
Q 54.984375 72.90625 63.59375 65.75 
Q 72.21875 58.59375 72.21875 44.484375 
Q 72.21875 35.15625 68.9375 26.53125 
Q 65.671875 17.921875 59.90625 12.015625 
Q 54.109375 5.953125 45.171875 2.96875 
Q 36.234375 0 24.03125 0 
L 2.6875 0 
z
M 25.203125 64.796875 
L 14.203125 8.109375 
L 27.09375 8.109375 
Q 43.65625 8.109375 52.734375 17.625 
Q 61.8125 27.15625 61.8125 44.484375 
Q 61.8125 54.984375 55.953125 59.890625 
Q 50.09375 64.796875 37.59375 64.796875 
z
" id="DejaVuSans-Oblique-68"/>
          </defs>
          <g transform="translate(115.801172 55.919688)scale(0.05 -0.05)">
           <use xlink:href="#DejaVuSans-Oblique-115"/>
           <use x="52.099609" xlink:href="#DejaVuSans-Oblique-117"/>
           <use x="115.478516" xlink:href="#DejaVuSans-Oblique-112"/>
           <use x="178.955078" xlink:href="#DejaVuSans-Oblique-68"/>
          </g>
         </g>
         <g id="text_4">
          <!-- t -->
          <defs>
           <path d="M 42.28125 54.6875 
L 40.921875 47.703125 
L 23 47.703125 
L 17.1875 18.015625 
Q 16.890625 16.359375 16.75 15.234375 
Q 16.609375 14.109375 16.609375 13.484375 
Q 16.609375 10.359375 18.484375 8.9375 
Q 20.359375 7.515625 24.515625 7.515625 
L 33.59375 7.515625 
L 32.078125 0 
L 23.484375 0 
Q 15.484375 0 11.546875 3.125 
Q 7.625 6.25 7.625 12.59375 
Q 7.625 13.71875 7.765625 15.0625 
Q 7.90625 16.40625 8.203125 18.015625 
L 14.015625 47.703125 
L 6.390625 47.703125 
L 7.8125 54.6875 
L 15.28125 54.6875 
L 18.3125 70.21875 
L 27.296875 70.21875 
L 24.3125 54.6875 
z
" id="DejaVuSans-Oblique-116"/>
          </defs>
          <g transform="translate(154.699922 65.839687)scale(0.05 -0.05)">
           <use xlink:href="#DejaVuSans-Oblique-116"/>
          </g>
         </g>
         <g id="text_5">
          <!-- PBAD -->
          <defs>
           <path d="M 16.890625 72.90625 
L 42.09375 72.90625 
Q 52.34375 72.90625 57.421875 69.09375 
Q 62.5 65.28125 62.5 57.625 
Q 62.5 50.59375 58.125 45.484375 
Q 53.765625 40.375 46.6875 39.3125 
Q 52.734375 37.9375 55.765625 34.078125 
Q 58.796875 30.21875 58.796875 23.78125 
Q 58.796875 12.796875 50.65625 6.390625 
Q 42.53125 0 28.421875 0 
L 2.6875 0 
z
M 19.28125 34.8125 
L 14.109375 8.109375 
L 29.984375 8.109375 
Q 38.921875 8.109375 43.75 12.203125 
Q 48.578125 16.3125 48.578125 23.78125 
Q 48.578125 29.546875 45.375 32.171875 
Q 42.1875 34.8125 35.109375 34.8125 
z
M 25.09375 64.796875 
L 20.796875 42.828125 
L 35.5 42.828125 
Q 43.359375 42.828125 47.78125 46.234375 
Q 52.203125 49.65625 52.203125 55.71875 
Q 52.203125 60.453125 49.21875 62.625 
Q 46.234375 64.796875 39.703125 64.796875 
z
" id="DejaVuSans-Oblique-66"/>
           <path d="M 36.8125 72.90625 
L 48 72.90625 
L 61.53125 0 
L 51.21875 0 
L 48.1875 18.703125 
L 15.375 18.703125 
L 5.078125 0 
L -5.328125 0 
z
M 40.375 63.1875 
L 19.921875 26.90625 
L 46.6875 26.90625 
z
" id="DejaVuSans-Oblique-65"/>
          </defs>
          <g transform="translate(169.902187 65.839687)scale(0.05 -0.05)">
           <use xlink:href="#DejaVuSans-Oblique-80"/>
           <use x="60.302734" xlink:href="#DejaVuSans-Oblique-66"/>
           <use x="128.90625" xlink:href="#DejaVuSans-Oblique-65"/>
           <use x="197.314453" xlink:href="#DejaVuSans-Oblique-68"/>
          </g>
         </g>
         <g id="text_6">
          <!-- r -->
          <g transform="translate(198.052266 65.839687)scale(0.05 -0.05)">
           <use xlink:href="#DejaVuSans-Oblique-114"/>
          </g>
         </g>
         <g id="text_7">
          <!-- T -->
          <defs>
           <path d="M 5.90625 72.90625 
L 67.578125 72.90625 
L 66.015625 64.59375 
L 39.984375 64.59375 
L 27.484375 0 
L 17.578125 0 
L 30.078125 64.59375 
L 4.296875 64.59375 
z
" id="DejaVuSans-Oblique-84"/>
          </defs>
          <g transform="translate(232.273047 55.919688)scale(0.05 -0.05)">
           <use xlink:href="#DejaVuSans-Oblique-84"/>
          </g>
         </g>
         <g id="text_8">
          <!-- t -->
          <g transform="translate(266.299922 65.839687)scale(0.05 -0.05)">
           <use xlink:href="#DejaVuSans-Oblique-116"/>
          </g>
         </g>
         <g id="text_9">
          <!-- PT -->
          <g transform="translate(285.325625 65.839687)scale(0.05 -0.05)">
           <use xlink:href="#DejaVuSans-Oblique-80"/>
           <use x="60.302734" xlink:href="#DejaVuSans-Oblique-84"/>
          </g>
         </g>
         <g id="text_10">
          <!-- r -->
          <g transform="translate(309.652266 65.839687)scale(0.05 -0.05)">
           <use xlink:href="#DejaVuSans-Oblique-114"/>
          </g>
         </g>
         <g id="text_11">
          <!-- GFP -->
          <defs>
           <path d="M 54.59375 10.890625 
L 58.40625 29.984375 
L 42.1875 29.984375 
L 43.703125 38.09375 
L 69.578125 38.09375 
L 63.28125 6 
Q 56.78125 2.4375 49.109375 0.5 
Q 41.453125 -1.421875 33.6875 -1.421875 
Q 19.96875 -1.421875 12.234375 6.1875 
Q 4.5 13.8125 4.5 27.390625 
Q 4.5 38.671875 9.203125 48.84375 
Q 13.921875 59.03125 22.21875 65.828125 
Q 27.4375 70.0625 33.640625 72.140625 
Q 39.84375 74.21875 47.40625 74.21875 
Q 54.25 74.21875 60.515625 72.484375 
Q 66.796875 70.75 72.515625 67.28125 
L 70.515625 56.78125 
Q 66.109375 61.375 60.203125 63.796875 
Q 54.296875 66.21875 47.609375 66.21875 
Q 39.84375 66.21875 33.9375 63.25 
Q 28.03125 60.296875 23.390625 54.109375 
Q 19.4375 48.828125 17.15625 41.671875 
Q 14.890625 34.515625 14.890625 27.09375 
Q 14.890625 16.890625 20.109375 11.734375 
Q 25.34375 6.59375 35.6875 6.59375 
Q 40.875 6.59375 45.703125 7.6875 
Q 50.53125 8.796875 54.59375 10.890625 
z
" id="DejaVuSans-Oblique-71"/>
           <path d="M 16.890625 72.90625 
L 58.6875 72.90625 
L 57.078125 64.59375 
L 25.09375 64.59375 
L 20.90625 43.109375 
L 49.8125 43.109375 
L 48.1875 34.8125 
L 19.28125 34.8125 
L 12.5 0 
L 2.6875 0 
z
" id="DejaVuSans-Oblique-70"/>
          </defs>
          <g transform="translate(340.517578 55.919688)scale(0.05 -0.05)">
           <use xlink:href="#DejaVuSans-Oblique-71"/>
           <use x="77.490234" xlink:href="#DejaVuSans-Oblique-70"/>
           <use x="135.009766" xlink:href="#DejaVuSans-Oblique-80"/>
          </g>
         </g>
         <g id="text_12">
          <!-- t -->
          <g transform="translate(377.899922 65.839687)scale(0.05 -0.05)">
           <use xlink:href="#DejaVuSans-Oblique-116"/>
          </g>
         </g>
        </g>
       </g>
       <defs>
        <clipPath id="p6f7263feef">
         <rect height="74.4" width="334.8" x="54" y="17.34"/>
        </clipPath>
       </defs>
      </g>
     </g>
    </g>
   </g>
  </g>
 </g>
</svg>
