<?xml version="1.0" encoding="utf-8" standalone="no"?>
<!DOCTYPE svg PUBLIC "-//W3C//DTD SVG 1.1//EN"
  "http://www.w3.org/Graphics/SVG/1.1/DTD/svg11.dtd">
<!-- Created with matplotlib (https://matplotlib.org/) -->
<svg height="108pt" version="1.1" viewBox="0 0 324 108" width="324pt" xmlns="http://www.w3.org/2000/svg" xmlns:xlink="http://www.w3.org/1999/xlink">
 <defs>
  <style type="text/css">
*{stroke-linecap:butt;stroke-linejoin:round;}
  </style>
 </defs>
 <g id="figure_1">
  <g id="patch_1">
   <path d="M 0 108 
L 324 108 
L 324 0 
L 0 0 
z
" style="fill:#ffffff;"/>
  </g>
  <g id="axes_1">
   <g id="patch_2">
    <path clip-path="url(#pa0b30b77a9)" d="M 96.906522 39.983478 
L 101.758696 42.409565 
L 96.906522 44.835652 
z
" style="fill:#ffb280;stroke:#ffb280;stroke-linejoin:miter;"/>
    <g id="patch_3">
     <path clip-path="url(#pa0b30b77a9)" d="M 135.723913 64.244348 
L 130.871739 66.670435 
L 135.723913 69.096522 
z
" style="fill:#f2f200;stroke:#f2f200;stroke-linejoin:miter;"/>
     <g id="patch_4">
      <path clip-path="url(#pa0b30b77a9)" d="M 122.380435 54.54 
C 122.380435 52.932021 121.740986 51.388256 120.603974 50.251244 
C 119.466961 49.114231 117.923196 48.474783 116.315217 48.474783 
C 114.707239 48.474783 113.163474 49.114231 112.026461 50.251244 
C 110.889448 51.388256 110.25 52.932021 110.25 54.54 
L 116.315217 54.54 
L 122.380435 54.54 
z
" style="fill:#f2f200;stroke:#000000;stroke-linejoin:miter;"/>
     </g>
     <g id="patch_5">
      <path clip-path="url(#pa0b30b77a9)" d="M 226.702174 54.54 
C 226.702174 52.932021 226.062726 51.388256 224.925713 50.251244 
C 223.7887 49.114231 222.244935 48.474783 220.636957 48.474783 
C 219.028978 48.474783 217.485213 49.114231 216.3482 50.251244 
C 215.211188 51.388256 214.571739 52.932021 214.571739 54.54 
L 220.636957 54.54 
L 226.702174 54.54 
z
" style="fill:#0000e6;stroke:#000000;stroke-linejoin:miter;"/>
     </g>
     <g id="line2d_1">
      <path clip-path="url(#pa0b30b77a9)" d="M 201.228261 54.54 
L 201.228261 42.409565 
" style="fill:none;stroke:#000000;stroke-linecap:square;stroke-linejoin:miter;"/>
     </g>
     <g id="line2d_2">
      <path clip-path="url(#pa0b30b77a9)" d="M 89.628261 54.54 
L 89.628261 42.409565 
" style="fill:none;stroke:#ffb280;stroke-linecap:square;stroke-linejoin:miter;"/>
     </g>
     <g id="line2d_3">
      <path clip-path="url(#pa0b30b77a9)" d="M 143.002174 54.54 
L 143.002174 66.670435 
" style="fill:none;stroke:#f2f200;stroke-linecap:square;stroke-linejoin:miter;"/>
     </g>
     <g id="line2d_4">
      <path clip-path="url(#pa0b30b77a9)" d="M 196.376087 42.409565 
L 206.080435 42.409565 
" style="fill:none;stroke:#000000;stroke-linecap:square;stroke-linejoin:miter;"/>
     </g>
     <g id="line2d_5">
      <path clip-path="url(#pa0b30b77a9)" d="M 89.628261 42.409565 
L 99.332609 42.409565 
" style="fill:none;stroke:#ffb280;stroke-linecap:square;stroke-linejoin:miter;"/>
     </g>
     <g id="line2d_6">
      <path clip-path="url(#pa0b30b77a9)" d="M 143.002174 66.670435 
L 133.297826 66.670435 
" style="fill:none;stroke:#f2f200;stroke-linecap:square;stroke-linejoin:miter;"/>
     </g>
     <g id="line2d_7">
      <path clip-path="url(#pa0b30b77a9)" d="M 40.5 54.54 
L 291.6 54.54 
" style="fill:none;stroke:#000000;stroke-linecap:square;stroke-linejoin:miter;"/>
     </g>
     <g id="patch_6">
      <path clip-path="url(#pa0b30b77a9)" d="M 44.745652 48.474783 
L 44.745652 60.605217 
L 71.432609 60.605217 
L 71.432609 65.457391 
L 81.136957 54.54 
L 71.432609 43.622609 
L 71.432609 48.474783 
z
" style="fill:#00cc00;stroke:#000000;stroke-linejoin:miter;"/>
      <g id="patch_7">
       <path clip-path="url(#pa0b30b77a9)" d="M 151.493478 48.474783 
L 151.493478 60.605217 
L 178.180435 60.605217 
L 178.180435 65.457391 
L 187.884783 54.54 
L 178.180435 43.622609 
L 178.180435 48.474783 
z
" style="fill:#e60000;stroke:#000000;stroke-linejoin:miter;"/>
       <g id="patch_8">
        <path clip-path="url(#pa0b30b77a9)" d="M 235.193478 50.90087 
L 235.193478 58.17913 
L 242.471739 58.17913 
L 242.471739 50.90087 
z
" style="fill:#ffffff;stroke:#000000;stroke-linejoin:miter;"/>
        <g id="patch_9">
         <path clip-path="url(#pa0b30b77a9)" d="M 287.354348 48.474783 
L 287.354348 60.605217 
L 260.667391 60.605217 
L 260.667391 65.457391 
L 250.963043 54.54 
L 260.667391 43.622609 
L 260.667391 48.474783 
z
" style="fill:#b2b2b2;stroke:#000000;stroke-linejoin:miter;"/>
         <g id="line2d_8">
          <path clip-path="url(#pa0b30b77a9)" d="M 133.297826 72.735652 
L 140.576087 72.735652 
" style="fill:none;stroke:#000000;stroke-linecap:square;stroke-linejoin:miter;"/>
         </g>
         <g id="line2d_9">
          <path clip-path="url(#pa0b30b77a9)" d="M 62.941304 66.670435 
L 62.941304 78.80087 
" style="fill:none;stroke:#000000;stroke-linecap:square;stroke-linejoin:miter;"/>
         </g>
         <g id="line2d_10">
          <path clip-path="url(#pa0b30b77a9)" d="M 62.941304 78.80087 
L 136.936957 78.80087 
" style="fill:none;stroke:#000000;stroke-linecap:square;stroke-linejoin:miter;"/>
         </g>
         <g id="line2d_11">
          <path clip-path="url(#pa0b30b77a9)" d="M 136.936957 78.80087 
L 136.936957 73.948696 
" style="fill:none;stroke:#000000;stroke-linecap:square;stroke-linejoin:miter;"/>
         </g>
         <g id="text_1">
          <!-- c1 -->
          <defs>
           <path d="M 53.609375 52.59375 
L 51.8125 43.703125 
Q 48.578125 46.046875 44.9375 47.21875 
Q 41.3125 48.390625 37.40625 48.390625 
Q 33.109375 48.390625 29.21875 46.875 
Q 25.34375 45.359375 22.703125 42.578125 
Q 18.5 38.328125 16.203125 32.609375 
Q 13.921875 26.90625 13.921875 20.796875 
Q 13.921875 13.421875 17.609375 9.8125 
Q 21.296875 6.203125 28.8125 6.203125 
Q 32.515625 6.203125 36.6875 7.328125 
Q 40.875 8.453125 45.40625 10.6875 
L 43.703125 1.8125 
Q 39.796875 0.203125 35.671875 -0.609375 
Q 31.546875 -1.421875 27.203125 -1.421875 
Q 16.3125 -1.421875 10.453125 4.015625 
Q 4.59375 9.46875 4.59375 19.578125 
Q 4.59375 28.078125 7.640625 35.234375 
Q 10.6875 42.390625 16.703125 48.09375 
Q 20.796875 52 26.3125 54 
Q 31.84375 56 38.375 56 
Q 42.1875 56 45.9375 55.140625 
Q 49.703125 54.296875 53.609375 52.59375 
z
" id="DejaVuSans-Oblique-99"/>
           <path d="M 6.5 8.296875 
L 22.609375 8.296875 
L 33.5 64.40625 
L 15.28125 60.890625 
L 17 69.390625 
L 35.109375 72.90625 
L 45.015625 72.90625 
L 32.421875 8.296875 
L 48.484375 8.296875 
L 46.921875 0 
L 4.890625 0 
z
" id="DejaVuSans-Oblique-49"/>
          </defs>
          <g transform="translate(59.97607 55.919688)scale(0.05 -0.05)">
           <use xlink:href="#DejaVuSans-Oblique-99"/>
           <use x="54.980469" xlink:href="#DejaVuSans-Oblique-49"/>
          </g>
         </g>
         <g id="text_2">
          <!-- t1 -->
          <defs>
           <path d="M 42.28125 54.6875 
L 40.921875 47.703125 
L 23 47.703125 
L 17.1875 18.015625 
Q 16.890625 16.359375 16.75 15.234375 
Q 16.609375 14.109375 16.609375 13.484375 
Q 16.609375 10.359375 18.484375 8.9375 
Q 20.359375 7.515625 24.515625 7.515625 
L 33.59375 7.515625 
L 32.078125 0 
L 23.484375 0 
Q 15.484375 0 11.546875 3.125 
Q 7.625 6.25 7.625 12.59375 
Q 7.625 13.71875 7.765625 15.0625 
Q 7.90625 16.40625 8.203125 18.015625 
L 14.015625 47.703125 
L 6.390625 47.703125 
L 7.8125 54.6875 
L 15.28125 54.6875 
L 18.3125 70.21875 
L 27.296875 70.21875 
L 24.3125 54.6875 
z
" id="DejaVuSans-Oblique-116"/>
          </defs>
          <g transform="translate(93.122775 61.984905)scale(0.05 -0.05)">
           <use xlink:href="#DejaVuSans-Oblique-116"/>
           <use x="39.208984" xlink:href="#DejaVuSans-Oblique-49"/>
          </g>
         </g>
         <g id="text_3">
          <!-- p1 -->
          <defs>
           <path d="M 49.609375 33.6875 
Q 49.609375 40.875 46.484375 44.671875 
Q 43.359375 48.484375 37.5 48.484375 
Q 33.5 48.484375 29.859375 46.4375 
Q 26.21875 44.390625 23.390625 40.484375 
Q 20.609375 36.625 18.9375 31.15625 
Q 17.28125 25.6875 17.28125 20.3125 
Q 17.28125 13.484375 20.40625 9.796875 
Q 23.53125 6.109375 29.296875 6.109375 
Q 33.546875 6.109375 37.1875 8.109375 
Q 40.828125 10.109375 43.40625 13.921875 
Q 46.1875 17.921875 47.890625 23.34375 
Q 49.609375 28.765625 49.609375 33.6875 
z
M 21.78125 46.390625 
Q 25.390625 51.125 30.296875 53.5625 
Q 35.203125 56 41.21875 56 
Q 49.609375 56 54.25 50.5 
Q 58.890625 45.015625 58.890625 35.109375 
Q 58.890625 27 56 19.65625 
Q 53.125 12.3125 47.703125 6.5 
Q 44.09375 2.640625 39.546875 0.609375 
Q 35.015625 -1.421875 29.984375 -1.421875 
Q 24.171875 -1.421875 20.21875 1 
Q 16.265625 3.421875 14.3125 8.203125 
L 8.6875 -20.796875 
L -0.296875 -20.796875 
L 14.40625 54.6875 
L 23.390625 54.6875 
z
" id="DejaVuSans-Oblique-112"/>
          </defs>
          <g transform="translate(113.137483 61.984905)scale(0.05 -0.05)">
           <use xlink:href="#DejaVuSans-Oblique-112"/>
           <use x="63.476562" xlink:href="#DejaVuSans-Oblique-49"/>
          </g>
         </g>
         <g id="text_4">
          <!-- p2 -->
          <defs>
           <path d="M 46.09375 35.203125 
L 14.59375 8.203125 
L 49.421875 8.203125 
L 47.703125 0 
L 0.390625 0 
L 2 8.296875 
L 34.90625 36.53125 
Q 41.5 42.234375 44.25 46.546875 
Q 47.015625 50.875 47.015625 55.421875 
Q 47.015625 60.15625 43.6875 63.125 
Q 40.375 66.109375 35.015625 66.109375 
Q 30.375 66.109375 24.703125 64.453125 
Q 19.046875 62.796875 12.59375 59.625 
L 14.40625 69.390625 
Q 20.453125 71.78125 25.96875 73 
Q 31.5 74.21875 36.1875 74.21875 
Q 45.75 74.21875 51.578125 69.140625 
Q 57.421875 64.0625 57.421875 55.8125 
Q 57.421875 50.25 54.640625 45.1875 
Q 51.859375 40.140625 46.09375 35.203125 
z
" id="DejaVuSans-Oblique-50"/>
          </defs>
          <g transform="translate(133.759222 49.85447)scale(0.05 -0.05)">
           <use xlink:href="#DejaVuSans-Oblique-112"/>
           <use x="63.476562" xlink:href="#DejaVuSans-Oblique-50"/>
          </g>
         </g>
         <g id="text_5">
          <!-- c2 -->
          <g transform="translate(166.723896 55.919688)scale(0.05 -0.05)">
           <use xlink:href="#DejaVuSans-Oblique-99"/>
           <use x="54.980469" xlink:href="#DejaVuSans-Oblique-50"/>
          </g>
         </g>
         <g id="text_6">
          <!-- p1 -->
          <g transform="translate(198.050526 61.984905)scale(0.05 -0.05)">
           <use xlink:href="#DejaVuSans-Oblique-112"/>
           <use x="63.476562" xlink:href="#DejaVuSans-Oblique-49"/>
          </g>
         </g>
         <g id="text_7">
          <!-- r1 -->
          <defs>
           <path d="M 44.578125 46.390625 
Q 43.21875 47.125 41.453125 47.515625 
Q 39.703125 47.90625 37.703125 47.90625 
Q 30.515625 47.90625 25.140625 42.453125 
Q 19.78125 37.015625 18.015625 27.875 
L 12.5 0 
L 3.515625 0 
L 14.203125 54.6875 
L 23.1875 54.6875 
L 21.484375 46.1875 
Q 25.046875 50.921875 30 53.453125 
Q 34.96875 56 40.578125 56 
Q 42.046875 56 43.453125 55.828125 
Q 44.875 55.671875 46.296875 55.28125 
z
" id="DejaVuSans-Oblique-114"/>
          </defs>
          <g transform="translate(218.018597 61.984905)scale(0.05 -0.05)">
           <use xlink:href="#DejaVuSans-Oblique-114"/>
           <use x="41.113281" xlink:href="#DejaVuSans-Oblique-49"/>
          </g>
         </g>
        </g>
       </g>
       <defs>
        <clipPath id="pa0b30b77a9">
         <rect height="72.782609" width="251.1" x="40.5" y="18.148696"/>
        </clipPath>
       </defs>
      </g>
     </g>
    </g>
   </g>
  </g>
 </g>
</svg>
